<?xml version="1.0" standalone="no"?>
<!DOCTYPE svg PUBLIC "-//W3C//DTD SVG 1.1//EN" "http://www.w3.org/Graphics/SVG/1.1/DTD/svg11.dtd" >
<svg xmlns="http://www.w3.org/2000/svg" xmlns:xlink="http://www.w3.org/1999/xlink" version="1.1">
<metadata></metadata>
<defs>
<font id="betasansboldregular" horiz-adv-x="1167" >
<font-face units-per-em="2048" ascent="1638" descent="-410" />
<missing-glyph horiz-adv-x="471" />
<glyph horiz-adv-x="0" />
<glyph unicode="&#xd;" horiz-adv-x="471" />
<glyph unicode=" "  horiz-adv-x="471" />
<glyph unicode="&#x09;" horiz-adv-x="471" />
<glyph unicode="&#xa0;" horiz-adv-x="471" />
<glyph unicode="!" horiz-adv-x="608" d="M150 53v97q0 53 55 53h198q55 0 56 -53v-97q0 -53 -56 -53h-198q-55 0 -55 53zM188 461v983q0 53 56 53h121q55 0 55 -53v-983q0 -53 -55 -53h-121q-55 0 -56 53z" />
<glyph unicode="&#x22;" horiz-adv-x="827" d="M139 1118v332q0 49 56 49h118q55 0 56 -49v-332q0 -49 -56 -49h-118q-55 0 -56 49zM457 1118v332q0 49 57 49h119q55 0 55 -49v-332q0 -49 -55 -49h-119q-57 0 -57 49z" />
<glyph unicode="#" horiz-adv-x="1302" d="M109 680v94q0 53 55 53h158v271h-158q-55 0 -55 53v94q0 53 55 53h158v148q0 51 55 51h121q55 0 55 -51v-148h197v148q0 51 55 51h121q55 0 55 -51v-148h158q57 0 57 -53v-94q0 -53 -57 -53h-158v-271h158q57 0 57 -53v-94q0 -51 -57 -51h-158v-148q0 -53 -55 -53h-121 q-55 0 -55 53v148h-197v-148q0 -53 -55 -53h-121q-55 0 -55 53v148h-158q-55 0 -55 51zM553 827h197v271h-197v-271z" />
<glyph unicode="$" horiz-adv-x="958" d="M119 299v84q0 53 49 53q8 0 16 -2q106 -27 291 -26q53 0 89 31.5t36 84.5q0 47 -49 78q-8 4 -92 41q-197 88 -230 113q-111 80 -110 215q0 123 76 209q74 80 190 104v160q0 53 57 53h119q57 0 57 -53v-156q207 -18 207 -90v-84q0 -53 -51 -53q-6 0 -14 2q-109 27 -285 27 q-55 0 -90 -32t-35 -85q0 -47 47 -78q12 -8 92 -41q186 -80 232 -111q110 -80 110 -217q0 -221 -215 -297v-176q0 -53 -55 -53h-119q-57 0 -57 53v152q-266 10 -266 94z" />
<glyph unicode="%" horiz-adv-x="1540" d="M98 1204q0 125 91.5 213t222.5 88q129 0 221 -88t92 -213q0 -123 -92 -211t-221 -88q-131 0 -222.5 88t-91.5 211zM213 45q0 12 6 25l856 1396q20 33 62 33h141q47 0 47 -43q0 -12 -6 -24l-856 -1397q-20 -33 -62 -33h-141q-47 0 -47 43zM315 1204q0 -45 29 -74.5 t68 -29.5q37 0 65.5 29.5t28.5 74.5t-28.5 76t-65.5 31q-39 0 -68 -31t-29 -76zM815 299q0 125 92 213t223 88q129 0 221.5 -88t92.5 -213t-92 -213t-222 -88q-131 0 -223 88t-92 213zM1034 299q0 -45 29 -74.5t67 -29.5q37 0 66 29.5t29 74.5t-29 74.5t-66 29.5 q-39 0 -67.5 -29.5t-28.5 -74.5z" />
<glyph unicode="&#x26;" horiz-adv-x="1454" d="M129 422q0 127 82 227q61 76 197 162q-180 211 -181 346q0 176 135 273q109 78 244 77q135 0 246 -75q143 -98 143 -275q0 -201 -268 -387l264 -301v158q0 53 56 53h114q57 0 58 -53v-164q0 -96 -58 -187q94 -104 170 -186q15 -17 15 -37q0 -53 -56 -53h-139 q-25 0 -41 18l-6 5l-90 102q-193 -135 -410 -135q-223 0 -349 113.5t-126 318.5zM362 418q0 -115 78 -174q63 -47 164 -47q131 0 268 90l-325 366q-184 -127 -185 -235zM457 1157q0 -76 137 -233q172 112 172 237q0 76 -66 115q-45 29 -94 29t-90 -29q-59 -39 -59 -119z" />
<glyph unicode="'" horiz-adv-x="507" d="M139 1118v332q0 49 56 49h118q55 0 56 -49v-332q0 -49 -56 -49h-118q-55 0 -56 49z" />
<glyph unicode="(" horiz-adv-x="915" d="M139 367v374q0 317 170 547t420 230h14q55 0 56 -56v-96q0 -53 -56 -53h-14q-139 0 -246 -162q-109 -168 -108 -410v-374q0 -242 108 -410q104 -160 246 -160h10q55 0 56 -55v-96q0 -55 -56 -56h-10q-250 0 -420 229.5t-170 547.5z" />
<glyph unicode=")" horiz-adv-x="915" d="M119 1366v96q0 55 55 56h14q248 0 419 -229.5t171 -547.5v-374q0 -317 -171 -547t-419 -230h-12q-55 0 -55 56v96q0 55 55 55h12q139 0 244 160q111 168 111 410v374q0 242 -111 410q-104 162 -244 162h-14q-55 0 -55 53z" />
<glyph unicode="*" horiz-adv-x="1370" d="M96 1044q0 8 2 17q14 39 27 80q25 57 63 57q8 0 19 -2l362 -111v361q0 51 56 51h120q55 0 56 -51v-361l362 111q8 2 19 2q39 0 63 -57q13 -41 25 -80q4 -8 4 -19q0 -37 -39 -49l-361 -108l236 -303q10 -14 10 -29q0 -33 -49 -68q-35 -20 -67 -43q-47 -31 -80 13l-240 311 l-242 -311q-14 -20 -41 -21q-31 0 -75 33q-29 20 -53.5 38.5t-24.5 45.5q0 16 10 31l236 303q-125 31 -250 63q-147 43 -148 96z" />
<glyph unicode="+" horiz-adv-x="1282" d="M98 487v95q0 53 56 53h370v383q0 51 58 51h118q57 0 58 -51v-383h370q57 0 58 -53v-95q0 -51 -58 -51h-370v-383q0 -53 -58 -53h-118q-57 0 -58 53v383h-370q-55 0 -56 51z" />
<glyph unicode="," horiz-adv-x="550" d="M119 49v86q0 49 55 49h203q55 0 55 -49v-145q0 -94 -83 -178t-179 -84q-49 0 -49 49v73q0 27 48 50.5t48 99.5h-43q-55 0 -55 49z" />
<glyph unicode="-" horiz-adv-x="894" d="M119 748v94q0 53 55 53h547q57 0 57 -53v-94q0 -53 -57 -54h-547q-55 0 -55 54z" />
<glyph unicode="." horiz-adv-x="530" d="M98 53v94q0 53 56 54h202q55 0 56 -54v-94q0 -53 -56 -53h-202q-55 0 -56 53z" />
<glyph unicode="/" horiz-adv-x="1312" d="M94 43q0 12 8 25l856 1396q20 33 60 33h141q49 0 49 -43q0 -12 -8 -24l-856 -1397q-20 -33 -61 -33h-140q-49 0 -49 43z" />
<glyph unicode="0" d="M147 340v817q0 147 103.5 243.5t253.5 96.5h160q150 0 253 -96t103 -244v-817q0 -147 -103.5 -243.5t-252.5 -96.5h-160q-150 0 -253.5 96.5t-103.5 243.5zM379 340q0 -55 37 -96t88 -41h160q51 0 87.5 41t36.5 96v817q0 57 -37.5 98t-86.5 41h-160q-49 0 -87 -41 t-38 -98v-817z" />
<glyph unicode="1" d="M248 53v97q0 53 55 53h158v1089h-158q-55 0 -55 54v96q0 53 55 53h334q55 0 55 -53v-1239h158q57 0 57 -53v-97q0 -53 -57 -53h-547q-55 0 -55 53z" />
<glyph unicode="2" d="M137 125q0 29 4 64.5t4 33.5q0 152 166 320q33 31 310 258q168 137 167 213v178q0 104 -124 104h-160q-51 0 -89 -41t-38 -98v-24q0 -53 -55 -54h-119q-55 0 -56 54v24q0 147 103.5 243.5t253.5 96.5h160q152 0 249 -76q106 -82 107 -229v-184q0 -139 -166 -297 q-154 -127 -307 -256q-166 -139 -166 -234v-18h584q55 0 55 -53v-97q0 -53 -55 -53h-762q-66 0 -66 125z" />
<glyph unicode="3" d="M147 340v27q0 53 56 53h119q57 0 57 -53v-27q0 -57 38 -97t87 -40h160q125 0 124 102v275q0 104 -124 104h-86q-55 0 -56 53v97q0 53 56 53h90q121 0 120 100v205q0 102 -124 102h-160q-49 0 -87 -40t-38 -97v-24q0 -53 -57 -54h-119q-55 0 -56 54v24q0 147 103.5 243.5 t253.5 96.5h160q152 0 249 -76q106 -84 107 -229v-205q0 -123 -80 -203q80 -80 80 -204v-275q0 -145 -107 -229q-98 -76 -249 -76h-160q-150 0 -253.5 96.5t-103.5 243.5z" />
<glyph unicode="4" d="M147 463v76q0 27 11 51l411 870q18 39 62 39h121q49 0 49 -45q0 -12 -4 -22l-387 -820h378v424q0 53 58 54h119q55 0 55 -54v-983q0 -53 -55 -53h-119q-57 0 -58 53v357h-585q-55 0 -56 53z" />
<glyph unicode="5" d="M147 340v27q0 53 56 53h119q57 0 57 -53v-27q0 -57 38 -97t87 -40h160q125 0 124 102v479q0 100 -124 103h-160q-47 0 -84 -35t-41 -86t-55 -51h-121q-55 0 -56 53v676q0 53 56 53h706q57 0 58 -53v-96q0 -53 -58 -54h-530v-225q59 20 125 21l160 -3q152 0 249 -75 q106 -82 107 -228v-479q0 -145 -107 -229q-98 -76 -249 -76h-160q-150 0 -253.5 96.5t-103.5 243.5z" />
<glyph unicode="6" d="M147 340v594q0 233 132 397q135 172 333 166q47 0 250 -6q53 -2 53 -57v-82q0 -23 -17 -40.5t-42 -17.5h-244q-70 0 -129 -59t-88 -160q53 14 109 15h160q150 0 253 -96.5t103 -243.5v-410q0 -147 -103.5 -243.5t-252.5 -96.5h-160q-150 0 -253.5 96.5t-103.5 243.5z M379 340q0 -55 37 -96t88 -41h160q51 0 87.5 41t36.5 96v410q0 55 -37.5 96t-86.5 41h-160q-49 0 -87 -41t-38 -96v-410z" />
<glyph unicode="7" d="M147 1348v96q0 53 56 53h762q55 0 55 -53v-76q0 -27 -10 -51l-617 -1280q-18 -37 -61 -37h-129q-49 0 -49 45q0 10 4 21l600 1228h-555q-55 0 -56 54z" />
<glyph unicode="8" d="M147 340v205q0 143 99 239q-98 96 -99 240v133q0 147 103.5 243.5t253.5 96.5h160q150 0 253 -96t103 -244v-133q0 -143 -98 -240q98 -96 98 -239v-205q0 -147 -103.5 -243.5t-252.5 -96.5h-160q-150 0 -253.5 96.5t-103.5 243.5zM379 340q0 -55 37 -96t88 -41h160 q51 0 87.5 41t36.5 96v205q0 57 -37.5 97t-86.5 40h-160q-49 0 -87 -40t-38 -97v-205zM379 1022q0 -55 37 -96t88 -41h160q51 0 87.5 41t36.5 96v135q0 57 -37.5 98t-86.5 41h-160q-49 0 -87 -41t-38 -98v-135z" />
<glyph unicode="9" d="M147 750v407q0 147 103.5 243.5t253.5 96.5h160q150 0 253 -96t103 -244v-594q0 -231 -129 -397q-135 -172 -336 -166q-47 0 -248 6q-55 2 -55 57v84q0 20 17.5 38t41.5 18h246q68 0 127 59.5t88 161.5q-53 -16 -108 -16h-160q-150 0 -253.5 97t-103.5 245zM379 748 q0 -55 37 -96.5t88 -41.5h160q51 0 87.5 41.5t36.5 96.5v409q0 57 -37.5 97t-86.5 40h-160q-49 0 -87 -40t-38 -97v-409z" />
<glyph unicode=":" horiz-adv-x="550" d="M119 53v94q0 53 55 54h203q55 0 55 -54v-94q0 -53 -55 -53h-203q-55 0 -55 53zM119 922v96q0 51 55 51h203q55 0 55 -51v-96q0 -51 -55 -52h-203q-55 0 -55 52z" />
<glyph unicode=";" horiz-adv-x="550" d="M119 53v97q0 53 55 53h203q55 0 55 -53v-160q0 -102 -65.5 -179t-180.5 -108q-8 -4 -16 -4q-49 0 -49 55v82q0 29 48 54.5t48 109.5h-43q-55 0 -55 53zM119 922v96q0 53 55 53h203q55 0 55 -53v-96q0 -53 -55 -54h-203q-55 0 -55 54z" />
<glyph unicode="&#x3c;" horiz-adv-x="1091" d="M94 786l629 682q25 29 59 29h154q47 0 47 -43q0 -14 -10 -29l-621 -675l623 -678q10 -14 10 -29q0 -43 -45 -43h-154q-35 0 -59 27l-631 686q-31 35 -2 73z" />
<glyph unicode="=" horiz-adv-x="1107" d="M119 264v90q0 51 55 52h762q55 0 55 -52v-90q0 -51 -55 -51h-762q-55 0 -55 51zM119 715v90q0 51 55 51h762q55 0 55 -51v-90q0 -49 -55 -49h-762q-55 0 -55 49z" />
<glyph unicode="&#x3e;" horiz-adv-x="1091" d="M104 43q0 14 11 29l622 678l-618 675q-10 14 -10 29q0 43 47 43h153q33 0 60 -29l626 -682q31 -39 -2 -73l-628 -684q-25 -29 -60 -29h-153q-47 0 -48 43z" />
<glyph unicode="?" horiz-adv-x="1077" d="M88 1130v27q0 147 103.5 243.5t252.5 96.5h160q152 0 250 -76q106 -84 107 -229v-137q0 -104 -56 -187q-35 -51 -113.5 -119.5t-105.5 -101.5q-45 -59 -45 -131v-53q0 -55 -55 -55h-121q-55 0 -55 55v47q0 133 65 227q37 53 164 166q90 80 90 152v137q0 102 -125 102 h-160q-51 0 -89 -40t-38 -97v-27q0 -53 -55 -53h-119q-57 0 -55 53zM369 53v97q0 53 55 53h201q55 0 55 -53v-97q0 -53 -55 -53h-201q-55 0 -55 53z" />
<glyph unicode="@" horiz-adv-x="1523" d="M139 -88v817q0 147 103.5 243.5t253.5 96.5h534q150 0 253 -96t103 -244v-676q0 -53 -57 -53h-461q-147 0 -251.5 96.5t-104.5 243.5t104.5 243.5t251.5 96.5h287v49q0 57 -38 97t-87 40h-534q-51 0 -88 -40t-37 -97l-2 -817q0 -57 37.5 -97t89.5 -40h534q182 0 291 28 q8 2 14 2q51 0 51 -55v-84q0 -35 -36 -49q-113 -45 -320 -45h-534q-150 0 -253.5 96t-103.5 244zM743 340q0 -55 38 -96t87 -41h287v274h-287q-49 0 -87 -40t-38 -97z" />
<glyph unicode="A" horiz-adv-x="1384" d="M106 47q0 8 3 14l438 1393q14 43 61 43h168q47 0 62 -43l436 -1393q4 -6 4 -14q0 -47 -51 -47h-125q-47 0 -62 43l-114 365h-469l-115 -365q-12 -43 -59 -43h-125q-51 0 -52 47zM522 610h340l-170 545z" />
<glyph unicode="B" horiz-adv-x="1341" d="M160 53v1391q0 53 55 53h621q150 0 253 -96t103 -244v-135q0 -141 -98 -238q98 -98 98 -239v-205q0 -147 -103.5 -243.5t-252.5 -96.5h-621q-55 0 -55 53zM391 203h445q51 0 89 40t38 97l-2 205q0 57 -38 97t-87 40h-445v-479zM391 885h445q51 0 89 41t38 96l-2 135 q0 57 -38 97t-87 40l-445 2v-411z" />
<glyph unicode="C" horiz-adv-x="1255" d="M139 340v817q0 147 103.5 243.5t253.5 96.5h266q150 0 253 -96t103 -244v-84q0 -53 -55 -53h-121q-55 0 -55 55v82q0 57 -38 97t-87 40h-266q-51 0 -89 -40t-38 -97v-817q0 -57 37.5 -97t87.5 -40h268q49 0 87 40t38 97v84q0 53 55 53h119q55 0 55 -53v-84 q0 -147 -102.5 -243.5t-251.5 -96.5h-268q-147 0 -251 96.5t-104 243.5z" />
<glyph unicode="D" horiz-adv-x="1341" d="M160 53v1391q0 53 55 53h621q150 0 253 -96.5t103 -243.5v-817q0 -147 -103.5 -243.5t-252.5 -96.5h-621q-55 0 -55 53zM391 203h445q51 0 89 40t38 97l-2 817q0 57 -38 97t-87 40l-445 2v-1093z" />
<glyph unicode="E" horiz-adv-x="1265" d="M160 53v1391q0 53 55 53h868q55 0 56 -53v-94q0 -55 -56 -56h-694v-409h479q57 0 58 -54v-96q0 -53 -58 -53h-479v-479h694q55 0 56 -53v-97q0 -53 -56 -53h-868q-55 0 -55 53z" />
<glyph unicode="F" horiz-adv-x="1245" d="M160 53v1391q0 53 55 53h868q55 0 56 -53v-94q0 -55 -56 -56h-694v-409h479q57 0 58 -54v-96q0 -53 -58 -53h-479v-629q0 -53 -55 -53h-119q-55 0 -55 53z" />
<glyph unicode="G" horiz-adv-x="1331" d="M150 340v817q0 147 103 243.5t251 96.5h321q150 0 253.5 -96t103.5 -244v-82q0 -53 -56 -53h-120q-55 0 -56 53v82q0 57 -38 98t-87 41h-321q-49 0 -87 -41t-38 -98v-817q0 -57 38 -97t87 -40h321q51 0 88 40t37 97v342h-264q-55 0 -55 53v96q0 53 55 54h438q57 0 58 -54 v-491q0 -147 -103.5 -243.5t-253.5 -96.5h-321q-150 0 -252 96.5t-102 243.5z" />
<glyph unicode="H" horiz-adv-x="1351" d="M160 53v1391q0 53 55 53h119q55 0 55 -53v-559h572v559q0 53 55 53h121q55 0 55 -53v-1391q0 -53 -55 -53h-121q-55 0 -55 53v629h-572v-629q0 -53 -55 -53h-119q-55 0 -55 53z" />
<glyph unicode="I" horiz-adv-x="935" d="M139 53v97q0 53 56 53h157v1091h-157q-55 0 -56 54v96q0 53 56 53h546q57 0 58 -53v-96q0 -53 -58 -54h-157v-1091h157q57 0 58 -53v-97q0 -53 -58 -53h-546q-55 0 -56 53z" />
<glyph unicode="J" horiz-adv-x="1189" d="M109 340v84q0 57 98 57q18 0 43.5 -2t32.5 -2q55 0 55 -53v-84q0 -57 38 -97t87 -40h213q51 0 88 40t37 97v1104q0 53 57 53h117q57 0 57 -53v-1104q0 -147 -103.5 -243.5t-252.5 -96.5h-213q-150 0 -252 96.5t-102 243.5z" />
<glyph unicode="K" horiz-adv-x="1277" d="M160 53v1391q0 53 55 53h119q55 0 55 -53v-596l526 622q23 27 62 27h145q47 0 47 -41q0 -16 -12 -31l-526 -618l563 -737q10 -12 10 -29q0 -41 -47 -41h-141q-37 0 -60 29l-567 737v-713q0 -53 -55 -53h-119q-55 0 -55 53z" />
<glyph unicode="L" horiz-adv-x="1163" d="M160 53v1391q0 53 55 53h119q57 0 57 -53v-1241h639q57 0 57 -53v-97q0 -53 -57 -53h-815q-55 0 -55 53z" />
<glyph unicode="M" horiz-adv-x="1583" d="M160 53v1391q0 53 55 53h119q23 0 38 -12t21 -29l398 -1108l399 1108q6 20 29 33q16 8 30 8h119q57 0 57 -53v-1391q0 -53 -57 -53h-119q-55 0 -55 53v776l-289 -788q-16 -41 -59 -41h-109q-45 0 -59 41l-289 786v-774q0 -53 -55 -53h-119q-55 0 -55 53z" />
<glyph unicode="N" horiz-adv-x="1404" d="M160 53v1391q0 53 55 53h119q37 0 51 -31l629 -1022v1000q0 53 57 53h119q55 0 55 -53v-1391q0 -53 -55 -53h-119q-25 0 -45 20l-637 1037v-1004q0 -53 -55 -53h-119q-55 0 -55 53z" />
<glyph unicode="O" horiz-adv-x="1331" d="M150 340v817q0 147 103 243.5t253 96.5h319q150 0 253.5 -96.5t103.5 -243.5v-817q0 -147 -103.5 -243.5t-253.5 -96.5h-321q-150 0 -252 96.5t-102 243.5zM379 340q0 -57 38 -97t87 -40h321q51 0 88 40t37 97v817q0 57 -38 97t-87 40h-319q-51 0 -89 -40t-38 -97v-817z " />
<glyph unicode="P" horiz-adv-x="1290" d="M160 53v1391q0 55 55 55l621 -2q150 -1 254 -97q102 -95 102 -237v-6v-135q-2 -147 -104.5 -243.5t-251.5 -96.5h-445v-629q0 -53 -57 -53h-119q-55 0 -55 53zM391 885h445q51 0 89 41t38 96l-2 135q0 57 -38 98t-87 41h-445v-411z" />
<glyph unicode="Q" horiz-adv-x="1341" d="M150 340v817q0 147 103 243.5t253 96.5h319q150 0 253.5 -96t103.5 -244v-817q0 -80 -35 -150l92 -120q8 -12 8 -27q0 -43 -49 -43h-135q-35 0 -59 33l-7 8q-78 -41 -172 -41h-321q-150 0 -252 96.5t-102 243.5zM379 340q0 -57 38 -97t87 -40h321q20 0 41 8l-307 401 q-8 12 -8 25q0 45 49 45h135q35 0 60 -33l155 -205v713q0 57 -38 97t-87 40h-319q-51 0 -89 -40t-38 -97v-817z" />
<glyph unicode="R" horiz-adv-x="1327" d="M160 53v1391q0 55 55 55l621 -2q150 0 253 -96t103 -244v-135q0 -145 -103.5 -242.5t-252.5 -97.5h-19l377 -614q6 -10 6 -25q0 -43 -49 -43h-127q-39 0 -59 35l-400 647h-174v-629q0 -53 -57 -53h-119q-55 0 -55 53zM391 885h445q51 0 89 41t38 96l-2 135q0 57 -38 98 t-87 41h-445v-411z" />
<glyph unicode="S" horiz-adv-x="1232" d="M129 115v67q0 20 15.5 41t41.5 21q8 0 17 -2q154 -39 413 -39q100 0 172 51q84 63 84 180q0 70 -102 131q-20 10 -168 76q-258 115 -309 150q-164 111 -164 272q0 201 143 323q137 117 344 117q481 0 482 -119v-67q0 -20 -16.5 -41t-43.5 -21q-8 0 -16 2q-154 39 -406 39 q-100 0 -172 -51q-86 -63 -86 -178q0 -72 105 -131q29 -18 168 -76q242 -102 309 -149q164 -113 164 -273q0 -201 -143 -325q-137 -117 -345 -117q-487 0 -487 119z" />
<glyph unicode="T" horiz-adv-x="1249" d="M109 1350v94q0 55 55 55h921q55 0 56 -55v-94q0 -53 -56 -54h-344v-1243q0 -53 -57 -53h-119q-57 0 -57 53v1243h-344q-55 0 -55 54z" />
<glyph unicode="U" horiz-adv-x="1349" d="M160 340v1104q0 55 55 55h117q18 0 33 -20q23 -33 24 -35v-1104q0 -55 38 -96t87 -41h322q49 0 87 41t38 96v1104q0 55 55 55h119q55 0 55 -55v-1104q0 -145 -102.5 -242.5t-251.5 -97.5h-322q-150 0 -252 97.5t-102 242.5z" />
<glyph unicode="V" horiz-adv-x="1388" d="M106 1450q0 47 52 47h127q47 0 59 -43l350 -1112l348 1112q14 43 62 43h127q51 0 51 -47q0 -8 -4 -14l-436 -1393q-14 -43 -62 -43h-172q-47 0 -61 43l-438 1393q-2 6 -3 14z" />
<glyph unicode="W" horiz-adv-x="2119" d="M98 1436q-6 23 7.5 42t39.5 19h127q45 0 58 -43l305 -1096l303 1096q12 43 57 43h129q45 0 58 -43l303 -1096l303 1096q12 43 59 43h127q27 0 40 -19t7 -42l-387 -1393q-12 -43 -57 -43h-184q-47 0 -60 43l-274 991l-275 -991q-12 -43 -57 -43h-184q-45 0 -58 43z" />
<glyph unicode="X" horiz-adv-x="1271" d="M115 1454q0 43 49 43h121q43 0 61 -35l289 -504l289 504q20 35 61 35h123q47 0 47 -43q0 -12 -6 -24l-391 -682l389 -680q6 -12 6 -25q0 -43 -47 -43h-123q-41 0 -61 35l-287 500l-287 -500q-18 -35 -61 -35h-121q-49 0 -49 43q0 12 8 25l389 680l-391 682q-8 12 -8 24z " />
<glyph unicode="Y" horiz-adv-x="1312" d="M84 1454q0 43 49 43h121q43 0 61 -35l340 -592l340 592q20 35 62 35h123q47 0 47 -43q0 -12 -6 -24l-449 -783v-594q0 -53 -55 -53h-121q-55 0 -55 53v594l-449 783q-8 12 -8 24z" />
<glyph unicode="Z" horiz-adv-x="1236" d="M139 53v78q0 29 15 53l675 1110h-634q-55 0 -56 54v96q0 53 56 53h849q55 0 56 -53v-76q0 -29 -15 -53l-675 -1112h634q55 0 56 -53v-97q0 -53 -56 -53h-849q-55 0 -56 53z" />
<glyph unicode="[" horiz-adv-x="989" d="M160 -86v1241q0 147 103.5 244.5t252.5 97.5q356 0 356 -94v-86q0 -53 -51 -53q-8 0 -14 2q-109 29 -291 28q-51 0 -88 -41t-37 -98v-1241q0 -57 37 -97t88 -40q182 0 289 26q8 2 16 2q51 0 51 -53v-86q0 -94 -356 -94q-150 0 -253 97.5t-103 244.5z" />
<glyph unicode="\" horiz-adv-x="1312" d="M104 1454q0 43 50 43h139q41 0 61 -33l856 -1396q8 -12 9 -25q0 -43 -50 -43h-141q-39 0 -59 33l-856 1397q-8 12 -9 24z" />
<glyph unicode="]" horiz-adv-x="989" d="M119 -248q0 53 51 53q6 0 14 -2q106 -27 291 -26q49 0 87 40t38 97v1241q0 57 -38 98t-87 41q-184 0 -291 -28q-8 -2 -16 -2q-49 0 -49 53v86q0 94 356 94q147 0 251.5 -97t104.5 -245v-1241q0 -147 -103 -244.5t-253 -97.5q-356 0 -356 94v86z" />
<glyph unicode="^" horiz-adv-x="958" d="M96 1161q0 35 121 172q113 131 152 154q16 10 34 10h150q31 0 47 -18q86 -88 170 -176q92 -98 92 -142q1 -25 -24 -37q-102 -51 -125 -51q-27 0 -43 21l-191 215l-190 -215q-18 -20 -45 -21q-20 0 -123 51q-25 12 -25 37z" />
<glyph unicode="_" horiz-adv-x="1323" d="M119 53v94q0 53 55 54h975q57 0 57 -54v-94q0 -53 -57 -53h-975q-55 0 -55 53z" />
<glyph unicode="`" horiz-adv-x="528" d="M74 1425q0 20 26 33q92 43 113 43q27 0 43 -16q66 -66 132.5 -133.5t66.5 -102.5q0 -20 -27 -32q-92 -43 -113 -43q-27 0 -43 18q-63 63 -130.5 131t-67.5 102z" />
<glyph unicode="a" horiz-adv-x="1107" d="M88 334q0 145 103.5 239.5t252.5 94.5h285v67q0 57 -38 96t-87 39q-186 0 -260 -16q-29 -6 -47 16q-16 16 -16 37v86q0 39 45 51q90 25 278 25q150 0 253.5 -94t103.5 -240v-682q0 -53 -56 -53h-461q-150 0 -253 95t-103 239zM317 334q0 -55 38 -95t89 -40h285v270h-285 q-51 0 -89 -40t-38 -95z" />
<glyph unicode="b" horiz-adv-x="1175" d="M139 340v1085q0 43 74 60q47 6 96 12q27 4 44.5 -13.5t17.5 -39.5v-373h231q199 0 332 -153.5t133 -380.5q0 -229 -133 -383t-332 -154h-108q-150 2 -252.5 97.5t-102.5 242.5zM369 340q0 -57 37.5 -97t87.5 -42h108q94 0 164 91t70 245q0 152 -72 245q-66 86 -162 86 h-231z" />
<glyph unicode="c" horiz-adv-x="989" d="M139 334v401q0 143 103.5 238.5t253.5 95.5q356 0 356 -92v-84q0 -18 -17.5 -37.5t-48.5 -13.5q-105 28 -278 28h-12q-49 0 -87 -39.5t-38 -95.5v-401q0 -55 36.5 -95t88.5 -40q182 0 288 28q31 6 49.5 -13t18.5 -38v-84q0 -92 -356 -92q-150 0 -253.5 95t-103.5 239z " />
<glyph unicode="d" horiz-adv-x="1185" d="M109 535q0 229 133 382.5t329 153.5h234v354q0 43 74 60q47 6 96 12q27 4 44 -14.5t17 -38.5v-1391q0 -53 -55 -53h-410q-197 0 -329.5 153.5t-132.5 381.5zM338 535q0 -152 74 -246q66 -86 159 -86h234v665l-234 -2q-94 0 -159 -84q-74 -94 -74 -247z" />
<glyph unicode="e" horiz-adv-x="1118" d="M139 334v401q0 143 103.5 238.5t253.5 95.5h159q150 0 253.5 -95.5t103.5 -238.5q0 -145 -103.5 -239.5t-253.5 -94.5h-284v-67q0 -55 36.5 -95t88.5 -40q203 0 309 28q31 6 49 -13t18 -38v-84q0 -92 -376 -92q-150 0 -253.5 94t-103.5 240zM371 600h284q49 0 87 40 t38 95t-37.5 95t-87.5 40h-159q-51 0 -88 -39.5t-37 -95.5v-135z" />
<glyph unicode="f" horiz-adv-x="776" d="M160 53v1104q0 150 104 250q96 91 227 91q13 0 27 -1q41 -2 84 -4q55 -12 55 -55v-90q0 -53 -55 -54h-86q-51 0 -89 -40t-38 -97v-86h213q55 0 55 -53v-96q0 -53 -55 -54h-213v-815q0 -53 -55 -53h-119q-55 0 -55 53z" />
<glyph unicode="g" horiz-adv-x="1169" d="M150 -106q0 57 59 57h110q59 0 59.5 -55.5t36.5 -88t91 -32.5h160q125 0 125 104q0 100 -125 101l-162 2q-147 0 -250.5 96t-103.5 244v407q0 147 103 243.5t253 96.5h160q150 0 253 -96t103 -244v-135q0 -145 -103.5 -242.5t-252.5 -97.5h-269q37 -70 109 -70h160 q152 0 249 -78q107 -82 107 -227q0 -147 -107 -229q-98 -78 -249 -78h-160q-152 0 -254 87t-102 235zM381 457h285q49 0 87 41t38 96v135q0 57 -38 98t-87 41h-160q-51 0 -88 -41t-37 -98v-272z" />
<glyph unicode="h" horiz-adv-x="1181" d="M160 53v1372q0 43 73 60q47 6 97 12q27 4 44 -14.5t17 -38.5v-375h285q150 0 253 -96t103 -244v-676q0 -53 -55 -53h-121q-55 0 -55 53v676q0 57 -38 97t-87 40h-285v-813q0 -53 -55 -53h-121q-55 0 -55 53z" />
<glyph unicode="i" horiz-adv-x="608" d="M150 1348v96q0 53 55 53h198q55 0 56 -53v-96q0 -53 -56 -54h-198q-55 0 -55 54zM188 53v963q0 53 56 53h121q55 0 55 -53v-963q0 -53 -55 -53h-121q-55 0 -56 53z" />
<glyph unicode="j" horiz-adv-x="608" d="M-16 -279q0 55 57 56h33q49 0 87 41t38 98v1100q0 53 55 53h121q55 0 55 -53v-1100q0 -150 -104 -249q-101 -95 -241 -95h-11h-35q-55 2 -55 55v94zM160 1346v98q0 53 55 53h199q57 0 57 -53v-98q0 -53 -57 -54h-199q-55 0 -55 54z" />
<glyph unicode="k" horiz-adv-x="1114" d="M160 53v1372q0 43 71 60q49 6 97 12q29 4 45 -14.5t16 -38.5v-766l318 366q25 27 61 27h145q47 0 48 -41q0 -16 -13 -29l-317 -364l440 -567q10 -14 10 -29q0 -41 -49 -41h-139q-39 0 -62 29l-442 567v-543q0 -53 -55 -53h-119q-55 0 -55 53z" />
<glyph unicode="l" horiz-adv-x="571" d="M170 53v1372q0 43 74 60q49 6 96 12q29 4 45 -14.5t16 -38.5l2 -1391q0 -53 -57 -53h-121q-55 0 -55 53z" />
<glyph unicode="m" horiz-adv-x="1812" d="M150 53v682q0 145 103 239.5t253 94.5h160q139 0 239 -84q100 84 242 84h160q150 0 253 -94t103 -240v-682q0 -53 -55 -53h-119q-57 0 -57 53v682q0 55 -38 95t-87 40h-160q-49 0 -87 -38.5t-38 -96.5v-682q0 -35 -49 -53h-127q-55 0 -55 53v682q0 57 -38 96t-87 39h-160 q-51 0 -89 -39.5t-38 -95.5l2 -682q0 -53 -57 -53h-119q-57 0 -55 53z" />
<glyph unicode="n" horiz-adv-x="1169" d="M150 53v682q0 145 103 239.5t253 94.5h160q150 0 253 -94t103 -240v-682q0 -53 -55 -53h-121q-55 0 -55 53v682q0 55 -38 95t-87 40h-160q-51 0 -89 -39.5t-38 -95.5l2 -682q0 -53 -57 -53h-119q-55 0 -55 53z" />
<glyph unicode="o" horiz-adv-x="1128" d="M129 334v401q0 143 103.5 238.5t252.5 95.5h160q150 0 253 -95t103 -239v-401q0 -145 -103 -239.5t-253 -94.5h-162q-147 0 -250.5 94t-103.5 240zM358 334q0 -55 38 -95t89 -40h160q49 0 87 40t38 95v401q0 55 -38 95t-87 40h-160q-51 0 -88 -39.5t-37 -95.5z" />
<glyph unicode="p" horiz-adv-x="1155" d="M129 -375v1104q0 147 103.5 243.5t250.5 96.5h109h5q196 0 327 -153q133 -154 133 -381q0 -229 -133 -382t-330 -153l-234 -2v-373q0 -53 -57 -53h-119q-55 0 -55 53zM358 729l2 -526h232q96 0 162 86q73 92 73 246t-73 247q-68 88 -160 88l-109 -2q-51 0 -89 -41 t-38 -98z" />
<glyph unicode="q" horiz-adv-x="1183" d="M109 535q0 227 133 380.5t329 153.5h410q55 0 55 -53v-1391q0 -53 -57 -53h-119q-55 0 -55 53v375h-234q-197 0 -329.5 153.5t-132.5 381.5zM338 535q0 -154 74 -246q66 -86 159 -86h234v663h-234q-94 0 -159 -86q-74 -94 -74 -245z" />
<glyph unicode="r" horiz-adv-x="894" d="M139 53v682q1 147 103 243q98 93 242 93h12q49 -2 258 -10q55 -2 55 -55v-82q0 -20 -18.5 -38t-40.5 -18q-160 4 -256 4q-47 0 -86 -40.5t-39 -96.5v-680q0 -55 -56 -55h-118q-55 0 -56 53z" />
<glyph unicode="s" horiz-adv-x="948" d="M119 92v84q0 18 17.5 37.5t47.5 13.5q102 -28 279 -28h12q53 0 89 31.5t36 84.5q0 45 -49 76q-8 4 -92 41q-197 86 -230 109q-110 77 -110 209q0 147 102.5 233t253.5 86q350 0 350 -92v-84q0 -18 -17 -37.5t-48 -13.5q-105 28 -273 28h-12q-55 0 -90 -31.5t-35 -84.5 q0 -45 47 -76q12 -8 92 -41q186 -78 232 -109q110 -78 110 -211q0 -143 -103 -230t-253 -87q-356 0 -356 92z" />
<glyph unicode="t" horiz-adv-x="786" d="M160 338v946q0 43 71 59q49 6 99 13q27 4 44 -13.5t17 -39.5v-238h211q55 0 55 -53v-94q0 -53 -55 -54h-211v-526q0 -57 37 -97t88 -40h86q55 0 55 -54v-88q0 -49 -53 -53l-86 -6q-14 -1 -27 -1q-133 0 -227 91q-104 100 -104 248z" />
<glyph unicode="u" horiz-adv-x="1169" d="M150 334v684q0 51 55 51h119q57 0 57 -51v-684q0 -55 37 -95t88 -40h160q49 0 87 40t38 95v684q0 51 55 51h119q57 0 57 -51v-684q0 -143 -103.5 -238.5t-252.5 -95.5h-160q-150 0 -253 95t-103 239z" />
<glyph unicode="v" horiz-adv-x="1044" d="M76 1024q0 47 51 47h115q47 0 59 -43l221 -690l221 690q14 43 62 43h113q51 0 51 -47q0 -8 -2 -14l-310 -967q-12 -43 -59 -43h-149q-47 0 -62 43l-309 967q-2 6 -2 14z" />
<glyph unicode="w" horiz-adv-x="1568" d="M78 1010q-6 20 7 39.5t40 19.5h113q45 0 57 -43l190 -676l191 676q12 43 59 43h99q47 0 59 -43l190 -676l191 676q12 43 57 43h113q27 0 40 -19.5t7 -39.5l-272 -967q-12 -43 -58 -43h-155q-45 0 -58 43l-164 578l-163 -578q-12 -43 -58 -43h-155q-45 0 -58 43z" />
<glyph unicode="x" horiz-adv-x="995" d="M94 43q0 12 8 23l275 471l-275 469q-8 10 -8 22q0 43 49 43h121q43 0 62 -33l172 -295l172 295q20 33 61 33h121q49 0 49 -43q0 -12 -6 -22l-274 -469l274 -471q6 -10 6 -23q0 -43 -49 -43h-121q-41 0 -61 35l-172 293l-172 -293q-18 -35 -62 -35h-121q-49 0 -49 43z" />
<glyph unicode="y" horiz-adv-x="1079" d="M88 -279q0 53 55 54h113q49 0 100.5 44t69.5 103l20 64q-25 12 -32 37l-314 985q-2 8 -2 14q0 47 52 47h120q45 0 60 -41l223 -702l219 702q14 41 59 41h121q51 0 52 -47q-1 -6 -3 -14l-348 -1104q-45 -145 -166 -240q-116 -93 -247 -93q-10 0 -21 1q-27 2 -79 6t-52 53 v90z" />
<glyph unicode="z" horiz-adv-x="958" d="M119 53v76q0 27 14 51l428 690h-387q-55 0 -55 54v94q0 51 55 51h602q55 0 55 -51v-76q0 -27 -14 -51l-428 -692h387q55 0 55 -52v-94q0 -53 -55 -53h-602q-55 0 -55 53z" />
<glyph unicode="{" horiz-adv-x="1075" d="M98 506v96q0 53 56 53h32q123 0 123 105q0 309 171 533.5t417 224.5h14q55 0 56 -54v-96q0 -55 -56 -55h-14q-137 0 -242 -156q-109 -162 -112 -397q-2 -121 -99 -207q98 -86 99 -207q0 -231 108.5 -390t245.5 -159h12q55 0 56 -53v-98q0 -55 -56 -56h-12 q-244 0 -413 223.5t-175 532.5q-2 104 -155 105q-55 0 -56 55z" />
<glyph unicode="|" horiz-adv-x="569" d="M170 53v1391q0 53 55 53h119q57 0 57 -53v-1391q0 -53 -57 -53h-119q-55 0 -55 53z" />
<glyph unicode="}" horiz-adv-x="1075" d="M109 1368v96q0 53 55 54h14q246 0 417 -224.5t171 -533.5q0 -104 123 -105h33q55 0 55 -53v-96q0 -55 -55 -55q-154 0 -156 -105q-6 -309 -175 -532.5t-413 -223.5h-12q-55 0 -55 56v98q0 53 55 53h12q137 0 245.5 159t108.5 390q0 121 99 207q-96 86 -99 207 q-4 236 -112 397q-104 156 -242 156h-14q-55 0 -55 55z" />
<glyph unicode="~" horiz-adv-x="1216" d="M90 1268q0 16 8 39q33 86 117 140t186 50q100 -2 185 -63q27 -18 123 -111q61 -59 106 -59q59 -2 99 63.5t69 65.5q12 0 27 -4q68 -27 73 -33q31 -16 31 -49q0 -16 -8 -39q-31 -86 -115 -139.5t-188 -51.5q-98 4 -182 64q-23 14 -121 110q-61 59 -109 62 q-59 2 -100 -64.5t-68 -66.5q-12 0 -26 6q-68 27 -74 31q-33 18 -33 49z" />
<glyph unicode="&#xa1;" horiz-adv-x="608" d="M150 1348v96q0 53 55 53h198q55 0 56 -53v-96q0 -53 -56 -54h-198q-55 0 -55 54zM188 53v983q0 53 56 54h121q55 0 55 -54v-983q0 -53 -55 -53h-121q-55 0 -56 53z" />
<glyph unicode="&#xa2;" horiz-adv-x="978" d="M139 545v407q0 125 75 214t194 118v160q0 53 55 53h119q57 0 57 -53v-156q213 -16 213 -90v-84q0 -53 -51 -53q-8 0 -15 2q-109 29 -290 29q-51 0 -88 -41t-37 -99l-2 -407q0 -57 37.5 -97t89.5 -40q182 0 288 28q8 2 17 2q51 0 51 -55v-84q0 -72 -213 -90v-156 q0 -53 -57 -53h-119q-55 0 -55 53v162q-119 27 -194 117t-75 213z" />
<glyph unicode="&#xa3;" horiz-adv-x="1312" d="M139 870v97q0 53 56 53h51v137q0 147 103.5 243.5t252.5 96.5q162 0 268 -108q90 -94 91 -193q0 -74 -58 -74h-123q-37 0 -53 43l-33 82q-29 45 -92 47q-49 2 -86 -39t-37 -98v-137h211q55 0 55 -53v-97q0 -53 -55 -53h-211v-614h338q49 0 87 40t38 97v84q2 53 57 53h117 q47 0 58 -55v-82q2 -147 -102.5 -243.5t-254.5 -96.5h-514q-55 0 -55 53l-2 764h-51q-55 0 -56 53z" />
<glyph unicode="&#xa5;" horiz-adv-x="1312" d="M84 1454q0 43 49 43h121q43 0 61 -35l340 -592l340 592q20 35 62 35h123q47 0 47 -43q0 -12 -6 -24l-353 -615h168q57 0 58 -53v-96q0 -53 -58 -54h-264v-135h264q57 0 58 -53v-96q0 -53 -58 -54h-264v-221q0 -53 -55 -53h-121q-55 0 -55 53v221h-265q-57 0 -57 54v96 q0 53 57 53h265v135h-265q-57 0 -57 54v96q0 53 57 53h168l-352 615q-8 12 -8 24z" />
<glyph unicode="&#xa7;" horiz-adv-x="1009" d="M150 94v84q0 55 49 55q8 0 16 -2q106 -29 291 -28q53 0 89 32.5t36 83.5q0 47 -49 78q-8 4 -93 43q-197 86 -229 111q-111 80 -110 215q0 127 81 215q-82 74 -81 193q0 147 102 235t254 88q350 0 350 -94v-84q0 -55 -51 -55q-6 0 -14 2q-109 29 -285 28q-55 0 -90 -32.5 t-35 -83.5q0 -47 47 -78q12 -8 92 -43q186 -78 232 -111q111 -80 110 -215q0 -127 -84 -215q84 -73 84 -192q0 -147 -103.5 -235.5t-252.5 -88.5q-356 0 -356 94zM381 768q0 -47 47 -78q12 -8 92 -41q16 -6 51 -22q60 32 60 102q0 43 -37 70q-23 14 -154 71 q-59 -31 -59 -102z" />
<glyph unicode="&#xa8;" horiz-adv-x="747" d="M98 1305v65q0 37 56 37h118q55 0 56 -37v-65q0 -37 -56 -37h-118q-55 0 -56 37zM420 1305v65q0 37 55 37h119q57 0 57 -37v-65q0 -37 -57 -37h-119q-55 0 -55 37z" />
<glyph unicode="&#xa9;" horiz-adv-x="1363" d="M154 328v413q0 141 99 234.5t243 93.5h374q141 0 240.5 -93t99.5 -235v-413q0 -141 -98 -234.5t-242 -93.5h-374q-143 0 -242.5 93t-99.5 235zM354 328q0 -61 42 -107.5t100 -46.5h374q57 0 98.5 46.5t41.5 107.5v413q0 61 -42 107.5t-98 46.5h-374q-57 0 -99.5 -46 t-42.5 -108v-413zM469 434v201q0 80 58.5 133t142.5 53h26q84 0 143.5 -54t57.5 -132v-12q0 -39 -41 -39h-80q-41 0 -39 39v12q0 45 -41 45h-26q-39 0 -39 -45v-201q0 -45 39 -45h26q41 0 41 57q-2 39 39 39h80q41 0 41 -39v-12q0 -80 -57.5 -133t-143.5 -53h-26 q-86 0 -143.5 53t-57.5 133z" />
<glyph unicode="&#xab;" horiz-adv-x="1134" d="M94 784l256 258q27 27 60 27h153q47 0 47 -39q0 -14 -10 -29l-248 -251l250 -256q10 -12 10 -27q0 -39 -47 -39h-153q-35 0 -60 27l-256 258q-33 35 -2 71zM522 784l256 258q27 27 60 27h153q47 0 47 -39q0 -14 -10 -29l-246 -251l248 -256q10 -12 10 -27q0 -39 -47 -39 h-153q-35 0 -60 27l-256 258q-31 35 -2 71z" />
<glyph unicode="&#xac;" horiz-adv-x="763" />
<glyph unicode="&#xad;" horiz-adv-x="894" d="M119 748v94q0 53 55 53h547q57 0 57 -53v-94q0 -53 -57 -54h-547q-55 0 -55 54z" />
<glyph unicode="&#xae;" horiz-adv-x="1363" d="M154 328v413q0 141 99 234.5t243 93.5h374q141 0 240.5 -93t99.5 -235v-413q0 -141 -98 -234.5t-242 -93.5h-374q-143 0 -242.5 93t-99.5 235zM354 328q0 -61 42 -107.5t100 -46.5h374q57 0 98.5 46.5t41.5 107.5v413q0 61 -42 107.5t-98 46.5h-374q-57 0 -99.5 -46 t-42.5 -108v-413zM469 295v340q0 80 58.5 133t142.5 53h26q86 0 143.5 -53t57.5 -133q0 -66 -41 -117q41 -51 41 -117v-106q0 -37 -41 -37h-80q-39 0 -39 37v106q0 37 -39 45q-8 2 -67 3v-154q0 -37 -41 -37h-80q-41 0 -41 37zM631 588h65q41 0 41 47q0 45 -41 45h-26 q-39 0 -39 -45v-47z" />
<glyph unicode="&#xb0;" horiz-adv-x="841" d="M109 1231q0 115 91 196.5t222 81.5q129 0 221 -81.5t92 -196.5q0 -117 -92 -199t-221 -82q-131 0 -222 82t-91 199zM326 1231q0 -43 28.5 -70.5t67.5 -27.5q37 0 65.5 27.5t28.5 70.5q0 41 -28.5 68.5t-65.5 27.5q-39 0 -67.5 -27.5t-28.5 -68.5z" />
<glyph unicode="&#xb1;" horiz-adv-x="1110" d="M119 51v94q0 53 55 54h762q55 0 55 -54v-94q0 -51 -55 -51h-762q-55 0 -55 51zM119 588v94q0 51 55 51h264v283q0 53 58 53h118q55 0 56 -53v-283h266q55 0 55 -51v-94q0 -53 -55 -53h-266v-283q0 -51 -56 -51h-118q-57 0 -58 51v283h-264q-55 0 -55 53z" />
<glyph unicode="&#xb4;" horiz-adv-x="548" d="M84 1249q0 33 70 105q66 63 129 129q16 18 43 18q20 0 112 -43q27 -12 27 -35q0 -33 -70 -104l-129 -129q-16 -18 -43 -19q-20 0 -112 43q-27 12 -27 35z" />
<glyph unicode="&#xb5;" horiz-adv-x="1208" d="M119 -375v1391q0 53 55 53h119q57 0 57 -53l-2 -676q0 -57 38 -97t89 -40h160q49 0 86 40t37 97l2 676q0 53 55 53h121q55 0 55 -53v-676q0 -72 -28 -137h135q55 0 55 -53v-97q0 -53 -55 -53h-623q-66 0 -127 20v-395q0 -53 -55 -53h-119q-57 0 -55 53z" />
<glyph unicode="&#xb6;" horiz-adv-x="1318" d="M119 1022v135q-2 147 102.5 243.5t253.5 96.5h621q55 0 55 -53v-1391q0 -53 -55 -53h-121q-55 0 -55 53v629h-93v-629q0 -53 -55 -53h-119q-57 0 -57 53v629h-123q-147 0 -250.5 96t-103.5 244zM348 1022q0 -57 38 -97t87 -40h123v409h-121q-51 0 -89 -40t-38 -97v-135z M827 885h93v411h-93v-411z" />
<glyph unicode="&#xb7;" horiz-adv-x="550" d="M117 729v96q0 51 57 52h203q55 0 55 -52v-96q0 -51 -55 -51h-203q-57 0 -57 51z" />
<glyph unicode="&#xbb;" horiz-adv-x="1134" d="M94 467q0 14 10 27l248 256l-246 251q-10 14 -10 29q0 39 47 39h154q33 0 59 -27l254 -258q31 -37 0 -71l-256 -258q-25 -27 -59 -27h-154q-47 0 -47 39zM522 467q0 14 10 27l248 256l-245 251q-10 14 -11 29q0 39 47 39h154q33 0 59 -27l256 -258q29 -39 -2 -71 l-256 -258q-25 -27 -59 -27h-154q-47 0 -47 39z" />
<glyph unicode="&#xbf;" horiz-adv-x="1077" d="M119 305v137q0 119 69 207q8 10 158 152q90 84 90 180v53q0 55 56 56h120q57 0 58 -56v-47q0 -133 -66 -227q-39 -53 -166 -166q-90 -80 -90 -152v-137q0 -102 127 -102h160q49 0 87 40t38 97v27q0 53 55 53h121q55 0 55 -53v-27q0 -147 -103.5 -243.5t-252.5 -96.5h-160 q-152 0 -250 76q-106 84 -106 229zM399 1348v96q0 53 56 53h198q57 0 58 -53v-96q0 -53 -58 -54h-198q-55 0 -56 54z" />
<glyph unicode="&#xc0;" horiz-adv-x="1384" d="M106 47q0 8 3 14l438 1393q14 43 61 43h168q47 0 62 -43l436 -1393q4 -6 4 -14q0 -47 -51 -47h-125q-47 0 -62 43l-114 365h-469l-115 -365q-12 -43 -59 -43h-125q-51 0 -52 47zM500 1841q0 27 26 41q92 51 113 51q27 0 43 -22q66 -76 129 -152q70 -84 70 -123 q0 -27 -27 -41q-90 -51 -111 -51q-27 0 -45 23q-63 76 -129 151q-70 84 -69 123zM522 610h340l-170 545z" />
<glyph unicode="&#xc1;" horiz-adv-x="1384" d="M106 47q0 8 3 14l438 1393q14 43 61 43h168q47 0 62 -43l436 -1393q4 -6 4 -14q0 -47 -51 -47h-125q-47 0 -62 43l-114 365h-469l-115 -365q-12 -43 -59 -43h-125q-51 0 -52 47zM502 1634q0 41 67 123q66 76 131 154q16 20 43 20q21 0 113 -51q25 -14 25 -39 q0 -41 -66.5 -121t-132.5 -155q-16 -20 -43 -21q-20 0 -113 51q-25 14 -24 39zM522 610h340l-170 545z" />
<glyph unicode="&#xc2;" horiz-adv-x="1384" d="M106 47q0 8 3 14l438 1393q14 43 61 43h168q47 0 62 -43l436 -1393q4 -6 4 -14q0 -47 -51 -47h-125q-47 0 -62 43l-114 365h-469l-115 -365q-12 -43 -59 -43h-125q-51 0 -52 47zM369 1640q0 14 12 29l188 240q18 23 45 22h158q6 -2 14 -4q16 -6 27 -18q66 -76 129 -152 q70 -84 70 -123q0 -27 -27 -41q-90 -51 -111 -51q-27 0 -45 23l-137 176q-45 -63 -90 -125q-57 -74 -98 -74q-14 0 -27 8q-33 16 -63 33q-45 29 -45 57zM522 610h340l-170 545z" />
<glyph unicode="&#xc3;" horiz-adv-x="1384" d="M106 47q0 8 3 14l438 1393q14 43 61 43h168q47 0 62 -43l436 -1393q4 -6 4 -14q0 -47 -51 -47h-125q-47 0 -62 43l-114 365h-469l-115 -365q-12 -43 -59 -43h-125q-51 0 -52 47zM354 1688q0 10 6 22q45 96 72 127q49 59 131 59t160 -66.5t94 -66.5q10 0 33.5 49.5 t56.5 49.5q10 0 23 -4q98 -35 98 -70q0 -11 -6 -23l-25 -51q-61 -135 -178 -135q-80 0 -157.5 66.5t-94.5 66.5q-12 0 -35.5 -49t-56.5 -49q-10 0 -22 4q-98 35 -99 70zM522 610h340l-170 545z" />
<glyph unicode="&#xc4;" horiz-adv-x="1384" d="M106 47q0 8 3 14l438 1393q14 43 61 43h168q47 0 62 -43l436 -1393q4 -6 4 -14q0 -47 -51 -47h-125q-47 0 -62 43l-114 365h-469l-115 -365q-12 -43 -59 -43h-125q-51 0 -52 47zM416 1688v96q0 53 55 53h119q57 0 57 -53v-96q0 -53 -57 -54h-119q-55 0 -55 54zM522 610 h340l-170 545zM737 1688v96q0 53 56 53h120q55 0 56 -53v-96q0 -53 -56 -54h-120q-55 0 -56 54z" />
<glyph unicode="&#xc5;" horiz-adv-x="1384" d="M106 47q0 8 3 14l438 1393q14 43 61 43h168q47 0 62 -43l436 -1393q4 -6 4 -14q0 -47 -51 -47h-125q-47 0 -62 43l-114 365h-469l-115 -365q-12 -43 -59 -43h-125q-51 0 -52 47zM403 1739q0 84 91 139q84 51 196 51q113 0 200 -53t87 -137t-87 -137.5t-200 -53.5t-196 51 q-90 55 -91 140zM522 610h340l-170 545zM610 1739q0 -27 80 -27t80 27t-80 26q-80 0 -80 -26z" />
<glyph unicode="&#xc7;" horiz-adv-x="1310" d="M139 328v825q0 150 103.5 247t253.5 97h319q150 0 253 -97t103 -247v-84q0 -53 -55 -53h-121q-55 0 -55 55v82q0 59 -37 99t-88 40h-319q-51 0 -89 -41t-38 -98v-825q0 -57 37.5 -98.5t87.5 -41.5h321q51 0 89 41t38 99l-2 84q0 53 57 53l117 2q57 0 57 -55v-84 q0 -135 -88 -230.5t-219 -109.5q66 -74 66 -178q0 -115 -80 -191t-197 -76q-86 0 -100 2q-66 10 -66 58v57q0 55 56 55h110q33 0 59.5 28t26.5 67q0 41 -26.5 68.5t-59.5 27.5h-110q-55 0 -56 55v23q-147 2 -247.5 99t-100.5 245z" />
<glyph unicode="&#xc8;" horiz-adv-x="1265" d="M160 53v1391q0 53 55 53h868q55 0 56 -53v-94q0 -55 -56 -56h-694v-409h479q57 0 58 -54v-96q0 -53 -58 -53h-479v-479h694q55 0 56 -53v-97q0 -53 -56 -53h-868q-55 0 -55 53zM459 1841q0 27 24 41q92 51 113 51q27 0 43 -22q66 -76 131 -152q68 -84 68 -123 q0 -27 -25 -41q-92 -51 -113 -51q-27 0 -43 23q-66 76 -131 151q-68 84 -67 123z" />
<glyph unicode="&#xc9;" horiz-adv-x="1265" d="M160 53v1391q0 53 55 53h868q55 0 56 -53v-94q0 -55 -56 -56h-694v-409h479q57 0 58 -54v-96q0 -53 -58 -53h-479v-479h694q55 0 56 -53v-97q0 -53 -56 -53h-868q-55 0 -55 53zM459 1634q0 41 69 123q63 76 129 154q16 20 43 20q21 0 113 -51q27 -14 27 -39 q0 -41 -67.5 -121t-131.5 -155q-18 -20 -43 -21q-23 0 -113 51q-27 14 -26 39z" />
<glyph unicode="&#xca;" horiz-adv-x="1251" d="M143 53v1391q0 53 56 53h868q55 0 55 -53v-94q0 -55 -55 -56h-692v-409h479q55 0 55 -54v-96q0 -53 -55 -53h-479v-479h692q55 0 55 -53v-97q0 -53 -55 -53h-868q-55 0 -56 53zM313 1640q0 14 11 29l190 240q16 23 43 22h158q6 -2 14 -4q16 -6 27 -18q66 -76 131 -152 q68 -84 67 -123q1 -27 -24 -41q-92 -51 -113 -51q-27 0 -43 23l-139 176q-45 -63 -90 -125q-57 -74 -99 -74q-14 0 -26 8q-31 16 -64 33q-43 29 -43 57z" />
<glyph unicode="&#xcb;" horiz-adv-x="1265" d="M160 53v1391q0 53 55 53h868q55 0 56 -53v-94q0 -55 -56 -56h-694v-409h479q57 0 58 -54v-96q0 -53 -58 -53h-479v-479h694q55 0 56 -53v-97q0 -53 -56 -53h-868q-55 0 -55 53zM375 1688v96q0 53 55 53h119q55 0 55 -53v-96q0 -53 -55 -54h-119q-55 0 -55 54zM696 1688 v96q0 53 56 53h118q57 0 58 -53v-96q0 -53 -58 -54h-118q-55 0 -56 54z" />
<glyph unicode="&#xcc;" horiz-adv-x="935" d="M139 53v97q0 53 56 53h157v1091h-157q-55 0 -56 54v96q0 53 56 53h546q57 0 58 -53v-96q0 -53 -58 -54h-157v-1091h157q57 0 58 -53v-97q0 -53 -58 -53h-546q-55 0 -56 53zM279 1841q0 27 24 41q92 51 113 51q27 0 43 -22q66 -76 129 -152q70 -84 69 -123q1 -27 -26 -41 q-90 -51 -111 -51q-27 0 -45 23q-63 76 -129 151q-68 84 -67 123z" />
<glyph unicode="&#xcd;" horiz-adv-x="935" d="M139 53v97q0 53 56 53h157v1091h-157q-55 0 -56 54v96q0 53 56 53h546q57 0 58 -53v-96q0 -53 -58 -54h-157v-1091h157q57 0 58 -53v-97q0 -53 -58 -53h-546q-55 0 -56 53zM279 1634q0 41 69 123q63 76 129 154q16 20 43 20q21 0 113 -51q25 -14 24 -39q0 -41 -66.5 -121 t-129.5 -155q-18 -20 -45 -21q-20 0 -111 51q-27 14 -26 39z" />
<glyph unicode="&#xce;" horiz-adv-x="935" d="M139 53v97q0 53 56 53h157v1091h-157q-55 0 -56 54v96q0 53 56 53h546q57 0 58 -53v-96q0 -53 -58 -54h-157v-1091h157q57 0 58 -53v-97q0 -53 -58 -53h-546q-55 0 -56 53zM145 1640q0 14 13 29l188 240q18 23 45 22h158q6 -2 14 -4q16 -6 27 -18q66 -76 129 -152 q70 -84 69 -123q1 -27 -24 -41q-92 -51 -113 -51q-27 0 -45 23l-137 176q-45 -63 -90 -125q-57 -74 -98 -74q-14 0 -27 8q-33 16 -64 33q-45 29 -45 57z" />
<glyph unicode="&#xcf;" horiz-adv-x="935" d="M139 53v97q0 53 56 53h157v1091h-157q-55 0 -56 54v96q0 53 56 53h546q57 0 58 -53v-96q0 -53 -58 -54h-157v-1091h157q57 0 58 -53v-97q0 -53 -58 -53h-546q-55 0 -56 53zM193 1688v96q0 53 57 53h119q55 0 55 -53v-96q0 -53 -55 -54h-119q-57 0 -57 54zM514 1688v96 q0 53 57 53h119q55 0 55 -53v-96q0 -53 -55 -54h-119q-57 0 -57 54z" />
<glyph unicode="&#xd1;" horiz-adv-x="1404" d="M160 53v1391q0 53 55 53h119q37 0 51 -31l629 -1022v1000q0 53 57 53h119q55 0 55 -53v-1391q0 -53 -55 -53h-119q-25 0 -45 20l-637 1037v-1004q0 -53 -55 -53h-119q-55 0 -55 53zM365 1688q0 10 6 22q45 96 69 127q51 59 133 59q80 0 158 -66.5t94 -66.5q12 0 35 49.5 t55 49.5q12 0 25 -4q96 -35 96 -70q0 -11 -6 -23l-22 -51q-63 -135 -179 -135q-82 0 -159.5 66.5t-94.5 66.5q-10 0 -33.5 -49t-56.5 -49q-10 0 -22 4q-98 35 -98 70z" />
<glyph unicode="&#xd2;" horiz-adv-x="1331" d="M150 340v817q0 147 103 243.5t253 96.5h319q150 0 253.5 -96.5t103.5 -243.5v-817q0 -147 -103.5 -243.5t-253.5 -96.5h-321q-150 0 -252 96.5t-102 243.5zM379 340q0 -57 38 -97t87 -40h321q51 0 88 40t37 97v817q0 57 -38 97t-87 40h-319q-51 0 -89 -40t-38 -97v-817z M471 1841q0 27 27 41q92 51 112 51q27 0 43 -22q66 -76 129 -152q70 -84 70 -123q0 -27 -27 -41q-90 -51 -112 -51q-25 0 -43 23q-63 76 -129 151q-70 84 -70 123z" />
<glyph unicode="&#xd3;" horiz-adv-x="1331" d="M150 340v817q0 147 103 243.5t253 96.5h319q150 0 253.5 -96.5t103.5 -243.5v-817q0 -147 -103.5 -243.5t-253.5 -96.5h-321q-150 0 -252 96.5t-102 243.5zM379 340q0 -57 38 -97t87 -40h321q51 0 88 40t37 97v817q0 57 -38 97t-87 40h-319q-51 0 -89 -40t-38 -97v-817z M473 1634q0 41 68 123q66 76 131 154q16 20 43 20q20 0 112 -51q25 -14 25 -39q0 -41 -66.5 -121t-132.5 -155q-16 -20 -43 -21q-20 0 -112 51q-25 14 -25 39z" />
<glyph unicode="&#xd4;" horiz-adv-x="1331" d="M150 340v817q0 147 103 243.5t253 96.5h319q150 0 253.5 -96.5t103.5 -243.5v-817q0 -147 -103.5 -243.5t-253.5 -96.5h-321q-150 0 -252 96.5t-102 243.5zM340 1640q0 14 12 29l189 240q16 23 43 22h157q6 -2 15 -4q16 -6 26 -18q66 -76 131 -152q68 -84 68 -123 q0 -27 -25 -41q-92 -51 -112 -51q-27 0 -43 23l-139 176q-45 -63 -91 -125q-57 -74 -98 -74q-14 0 -27 8q-31 16 -63 33q-43 29 -43 57zM379 340q0 -57 38 -97t87 -40h321q51 0 88 40t37 97v817q0 57 -38 97t-87 40h-319q-51 0 -89 -40t-38 -97v-817z" />
<glyph unicode="&#xd5;" horiz-adv-x="1331" d="M150 340v817q0 147 103 243.5t253 96.5h319q150 0 253.5 -96.5t103.5 -243.5v-817q0 -147 -103.5 -243.5t-253.5 -96.5h-321q-150 0 -252 96.5t-102 243.5zM328 1688q0 10 6 22q45 96 69 127q51 59 134 59q80 0 157.5 -66.5t93.5 -66.5q12 0 36 49.5t57 49.5q10 0 22 -4 q96 -35 96 -70q0 -11 -4 -23l-24 -51q-63 -135 -178 -135q-82 0 -160 66.5t-94 66.5q-10 0 -34 -49t-56 -49q-10 0 -23 4q-98 35 -98 70zM379 340q0 -57 38 -97t87 -40h321q51 0 88 40t37 97v817q0 57 -38 97t-87 40h-319q-51 0 -89 -40t-38 -97v-817z" />
<glyph unicode="&#xd6;" horiz-adv-x="1331" d="M150 340v817q0 147 103 243.5t253 96.5h319q150 0 253.5 -96.5t103.5 -243.5v-817q0 -147 -103.5 -243.5t-253.5 -96.5h-321q-150 0 -252 96.5t-102 243.5zM379 340q0 -57 38 -97t87 -40h321q51 0 88 40t37 97v817q0 57 -38 97t-87 40h-319q-51 0 -89 -40t-38 -97v-817z M387 1688v96q0 53 55 53h119q57 0 57 -53v-96q0 -53 -57 -54h-119q-55 0 -55 54zM709 1688v96q0 53 55 53h119q57 0 57 -53v-96q0 -53 -57 -54h-119q-55 0 -55 54z" />
<glyph unicode="&#xd8;" horiz-adv-x="1396" d="M109 750q0 313 170 540.5t419 227.5q152 0 283 -93q43 72 84 72h141q47 0 47 -43q0 -12 -6 -24l-106 -173q147 -216 147 -507q0 -315 -170 -542.5t-420 -227.5q-152 0 -282 92q-45 -74 -86 -74h-140q-49 0 -49 43q0 14 9 27l104 172q-145 219 -145 510zM346 750 q0 -152 47 -283l475 776q-80 72 -170 72q-139 0 -243 -160q-109 -166 -109 -405zM528 256q80 -72 170 -72q139 0 246 163t107 403q0 150 -47 280z" />
<glyph unicode="&#xd9;" horiz-adv-x="1349" d="M160 340v1104q0 55 55 55h117q18 0 33 -20q23 -33 24 -35v-1104q0 -55 38 -96t87 -41h322q49 0 87 41t38 96v1104q0 55 55 55h119q55 0 55 -55v-1104q0 -145 -102.5 -242.5t-251.5 -97.5h-322q-150 0 -252 97.5t-102 242.5zM481 1841q0 27 27 41q90 51 113 51 q25 0 43 -22q63 -76 129 -152q70 -84 69 -123q1 -27 -26 -41q-92 -51 -113 -51q-27 0 -43 23q-66 76 -129 151q-70 84 -70 123z" />
<glyph unicode="&#xda;" horiz-adv-x="1349" d="M160 340v1104q0 55 55 55h117q18 0 33 -20q23 -33 24 -35v-1104q0 -55 38 -96t87 -41h322q49 0 87 41t38 96v1104q0 55 55 55h119q55 0 55 -55v-1104q0 -145 -102.5 -242.5t-251.5 -97.5h-322q-150 0 -252 97.5t-102 242.5zM483 1634q0 41 68 123q66 76 129 154 q18 20 45 20q21 0 111 -51q27 -14 26 -39q0 -41 -66.5 -121t-131.5 -155q-16 -20 -43 -21q-20 0 -113 51q-25 14 -25 39z" />
<glyph unicode="&#xdb;" horiz-adv-x="1349" d="M160 340v1104q0 55 55 55h117q18 0 33 -20q23 -33 24 -35v-1104q0 -55 38 -96t87 -41h322q49 0 87 41t38 96v1104q0 55 55 55h119q55 0 55 -55v-1104q0 -145 -102.5 -242.5t-251.5 -97.5h-322q-150 0 -252 97.5t-102 242.5zM348 1640q0 14 12 29l189 240q18 23 45 22h158 q6 -2 14 -4q16 -6 27 -18q66 -76 131 -152q68 -84 67 -123q1 -27 -24 -41q-92 -51 -113 -51q-27 0 -43 23l-139 176q-45 -63 -90 -125q-57 -74 -99 -74q-14 0 -26 8q-33 16 -64 33q-45 29 -45 57z" />
<glyph unicode="&#xdc;" horiz-adv-x="1349" d="M160 340v1104q0 55 55 55h117q18 0 33 -20q23 -33 24 -35v-1104q0 -55 38 -96t87 -41h322q49 0 87 41t38 96v1104q0 55 55 55h119q55 0 55 -55v-1104q0 -145 -102.5 -242.5t-251.5 -97.5h-322q-150 0 -252 97.5t-102 242.5zM395 1688v96q0 53 58 53h118q55 0 56 -53v-96 q0 -53 -56 -54h-118q-57 0 -58 54zM719 1688v96q0 53 55 53h119q57 0 57 -53v-96q0 -53 -57 -54h-119q-55 0 -55 54z" />
<glyph unicode="&#xdf;" horiz-adv-x="1335" d="M68 1346v98q0 53 55 53h600q150 0 254 -97t102 -245q0 -147 -2 -168q-10 -90 -55 -158q166 -97 166 -290l-2 -197q0 -147 -102.5 -244.5t-252.5 -97.5h-247q-55 0 -56 53v97q0 55 56 55h247q49 0 87 40t38 97v197q0 57 -37.5 98t-87.5 41h-141q-55 0 -55 53v96 q0 53 55 54h35q49 0 86 41t37 98v135q0 57 -38 97t-87 40h-105q-90 0 -159 -100q-74 -109 -74 -266v-1086q0 -55 -55 -55h-119q-55 0 -55 55v1086q0 207 110 366h-143q-55 0 -55 54z" />
<glyph unicode="&#xe0;" horiz-adv-x="1107" d="M88 334q0 145 103.5 239.5t252.5 94.5h285v67q0 57 -38 96t-87 39q-186 0 -260 -16q-29 -6 -47 16q-16 16 -16 37v86q0 39 45 51q90 25 278 25q150 0 253.5 -94t103.5 -240v-682q0 -53 -56 -53h-461q-150 0 -253 95t-103 239zM317 334q0 -55 38 -95t89 -40h285v270h-285 q-51 0 -89 -40t-38 -95zM336 1413q0 25 26 39q90 51 113 51q25 0 43 -22q63 -74 129 -150q70 -82 70 -123q0 -25 -27 -39q-92 -51 -112 -51q-27 0 -43 23q-66 74 -129 149q-70 82 -70 123z" />
<glyph unicode="&#xe1;" horiz-adv-x="1107" d="M88 334q0 145 103.5 239.5t252.5 94.5h285v67q0 57 -38 96t-87 39q-186 0 -260 -16q-29 -6 -47 16q-16 16 -16 37v86q0 39 45 51q90 25 278 25q150 0 253.5 -94t103.5 -240v-682q0 -53 -56 -53h-461q-150 0 -253 95t-103 239zM317 334q0 -55 38 -95t89 -40h285v270h-285 q-51 0 -89 -40t-38 -95zM338 1208q0 39 68 121q66 76 129 152q18 20 45 20q20 0 110 -51q27 -14 27 -39q0 -39 -66.5 -118t-132.5 -154q-16 -20 -43 -21q-20 0 -113 49q-25 14 -24 41z" />
<glyph unicode="&#xe2;" horiz-adv-x="1107" d="M88 334q0 145 103.5 239.5t252.5 94.5h285v67q0 57 -38 96t-87 39q-186 0 -260 -16q-29 -6 -47 16q-16 16 -16 37v86q0 39 45 51q90 25 278 25q150 0 253.5 -94t103.5 -240v-682q0 -53 -56 -53h-461q-150 0 -253 95t-103 239zM205 1212q0 14 12 31l189 236q18 23 45 22 h157q6 -2 15 -4q16 -6 26 -18q66 -76 129 -150q70 -84 70 -123q0 -25 -27 -39q-90 -51 -110 -51q-27 0 -45 23l-138 174q-45 -61 -90 -123q-57 -74 -98 -74q-14 0 -27 8q-33 16 -63 33q-45 27 -45 55zM317 334q0 -55 38 -95t89 -40h285v270h-285q-51 0 -89 -40t-38 -95z" />
<glyph unicode="&#xe3;" horiz-adv-x="1107" d="M88 334q0 145 103.5 239.5t252.5 94.5h285v67q0 57 -38 96t-87 39q-186 0 -260 -16q-29 -6 -47 16q-16 16 -16 37v86q0 39 45 51q90 25 278 25q150 0 253.5 -94t103.5 -240v-682q0 -53 -56 -53h-461q-150 0 -253 95t-103 239zM190 1260q0 10 7 22q45 94 71 125 q49 59 131 59q80 0 158 -65.5t94 -65.5q12 0 36 48.5t56 48.5q10 0 23 -5q98 -35 98 -67q0 -11 -6 -25l-24 -49q-61 -133 -179 -133q-82 0 -159.5 65.5t-92.5 65.5q-12 0 -35.5 -48t-56.5 -48q-10 0 -22 4q-98 33 -99 68zM317 334q0 -55 38 -95t89 -40h285v270h-285 q-51 0 -89 -40t-38 -95z" />
<glyph unicode="&#xe4;" horiz-adv-x="1107" d="M88 334q0 145 103.5 239.5t252.5 94.5h285v67q0 57 -38 96t-87 39q-186 0 -260 -16q-29 -6 -47 16q-16 16 -16 37v86q0 39 45 51q90 25 278 25q150 0 253.5 -94t103.5 -240v-682q0 -53 -56 -53h-461q-150 0 -253 95t-103 239zM252 1260v94q0 53 55 53h119q55 0 55 -53 v-94q0 -53 -55 -54h-119q-55 0 -55 54zM317 334q0 -55 38 -95t89 -40h285v270h-285q-51 0 -89 -40t-38 -95zM573 1260v94q0 53 56 53h119q57 0 57 -53v-94q0 -53 -57 -54h-119q-55 0 -56 54z" />
<glyph unicode="&#xe5;" horiz-adv-x="1107" d="M88 334q0 145 103.5 239.5t252.5 94.5h285v67q0 57 -38 96t-87 39q-186 0 -260 -16q-29 -6 -47 16q-16 16 -16 37v86q0 39 45 51q90 25 278 25q150 0 253.5 -94t103.5 -240v-682q0 -53 -56 -53h-461q-150 0 -253 95t-103 239zM240 1311q0 84 90 137q84 51 196 51 q115 0 201 -52t86 -136t-86 -136.5t-201 -52.5q-113 0 -196 52q-90 53 -90 137zM317 334q0 -55 38 -95t89 -40h285v270h-285q-51 0 -89 -40t-38 -95zM446 1311q0 -27 80 -27t80 27t-80 26q-80 0 -80 -26z" />
<glyph unicode="&#xe7;" horiz-adv-x="989" d="M139 319v410q0 147 103.5 243.5t253.5 96.5q356 0 356 -94v-84q0 -53 -51 -53q-8 0 -15 2q-109 27 -290 26q-51 0 -88 -40t-37 -97l-2 -410q0 -55 37.5 -96t89.5 -41q182 0 288 29q8 2 17 2q51 0 51 -53v-86q0 -55 -156 -82q76 -76 76 -185q0 -115 -80 -189.5t-196 -74.5 q-86 0 -101 2q-68 10 -67 58v57q0 53 57 53h111q33 0 58.5 28t25.5 66q0 39 -26 67t-58 28h-111q-57 0 -57 55v61q-190 90 -189 301z" />
<glyph unicode="&#xe8;" horiz-adv-x="1118" d="M139 334v401q0 143 103.5 238.5t253.5 95.5h159q150 0 253.5 -95.5t103.5 -238.5q0 -145 -103.5 -239.5t-253.5 -94.5h-284v-67q0 -55 36.5 -95t88.5 -40q203 0 309 28q31 6 49 -13t18 -38v-84q0 -92 -376 -92q-150 0 -253.5 94t-103.5 240zM371 600h284q49 0 87 40 t38 95t-37.5 95t-87.5 40h-159q-51 0 -88 -39.5t-37 -95.5v-135zM381 1413q0 25 27 39q92 51 112 51q27 0 43 -22q66 -74 129 -150q70 -82 70 -123q0 -25 -27 -39q-90 -51 -112 -51q-25 0 -43 23q-63 74 -131 152.5t-68 119.5z" />
<glyph unicode="&#xe9;" horiz-adv-x="1118" d="M139 334v401q0 143 103.5 238.5t253.5 95.5h159q150 0 253.5 -95.5t103.5 -238.5q0 -145 -103.5 -239.5t-253.5 -94.5h-284v-67q0 -55 36.5 -95t88.5 -40q203 0 309 28q31 6 49 -13t18 -38v-84q0 -92 -376 -92q-150 0 -253.5 94t-103.5 240zM371 600h284q49 0 87 40 t38 95t-37.5 95t-87.5 40h-159q-51 0 -88 -39.5t-37 -95.5v-135zM381 1208q0 39 70 121q63 76 129 152q16 20 43 20q20 0 112 -51q27 -14 27 -39q0 -39 -67.5 -118t-131.5 -154q-16 -20 -43 -21q-23 0 -112 49q-27 14 -27 41z" />
<glyph unicode="&#xea;" horiz-adv-x="1118" d="M139 334v401q0 143 103.5 238.5t253.5 95.5h159q150 0 253.5 -95.5t103.5 -238.5q0 -145 -103.5 -239.5t-253.5 -94.5h-284v-67q0 -55 36.5 -95t88.5 -40q203 0 309 28q31 6 49 -13t18 -38v-84q0 -92 -376 -92q-150 0 -253.5 94t-103.5 240zM250 1212q0 14 12 31l189 236 q16 23 43 22h159q4 -2 13 -4q18 -6 26 -18q66 -76 131 -150q68 -84 68 -123q0 -25 -25 -39q-92 -51 -112 -51q-27 0 -43 23l-140 174q-45 -61 -88 -123q-57 -74 -100 -74q-14 0 -27 8q-31 16 -63 33q-43 27 -43 55zM371 600h284q49 0 87 40t38 95t-37.5 95t-87.5 40h-159 q-51 0 -88 -39.5t-37 -95.5v-135z" />
<glyph unicode="&#xeb;" horiz-adv-x="1118" d="M139 334v401q0 143 103.5 238.5t253.5 95.5h159q150 0 253.5 -95.5t103.5 -238.5q0 -145 -103.5 -239.5t-253.5 -94.5h-284v-67q0 -55 36.5 -95t88.5 -40q203 0 309 28q31 6 49 -13t18 -38v-84q0 -92 -376 -92q-150 0 -253.5 94t-103.5 240zM297 1260v94q0 53 55 53h119 q55 0 55 -53v-94q0 -53 -55 -54h-119q-55 0 -55 54zM371 600h284q49 0 87 40t38 95t-37.5 95t-87.5 40h-159q-51 0 -88 -39.5t-37 -95.5v-135zM618 1260v94q0 53 56 53h119q57 0 57 -53v-94q0 -53 -57 -54h-119q-55 0 -56 54z" />
<glyph unicode="&#xec;" horiz-adv-x="608" d="M115 1413q0 25 24 39q92 51 113 51q27 0 43 -22q66 -74 131 -150q68 -82 68 -123q0 -25 -25 -39q-92 -51 -113 -51q-27 0 -43 23q-66 74 -132 152.5t-66 119.5zM188 53v963q0 53 56 53h121q55 0 55 -53v-963q0 -53 -55 -53h-121q-55 0 -56 53z" />
<glyph unicode="&#xed;" horiz-adv-x="608" d="M115 1208q0 39 67 121q66 76 131 152q16 20 43 20q21 0 113 -51q25 -14 25 -39q0 -39 -67 -118t-132 -154q-16 -20 -43 -21q-20 0 -113 49q-25 14 -24 41zM188 53v963q0 53 56 53h121q55 0 55 -53v-963q0 -53 -55 -53h-121q-55 0 -56 53z" />
<glyph unicode="&#xee;" horiz-adv-x="608" d="M-16 1212q0 14 12 31l188 236q16 23 43 22h160q4 -2 12 -4q18 -6 27 -18q66 -76 131 -150q68 -84 68 -123q0 -25 -25 -39q-92 -51 -113 -51q-27 0 -43 23l-139 174q-45 -61 -88 -123q-57 -74 -100 -74q-14 0 -27 8q-31 16 -63 33q-43 27 -43 55zM188 53v963q0 53 58 53 h121q55 0 55 -53v-963q0 -53 -55 -53h-121q-57 0 -58 53z" />
<glyph unicode="&#xef;" horiz-adv-x="608" d="M27 1260v94q0 53 57 53h119q55 0 55 -53v-94q0 -53 -55 -54h-119q-57 0 -57 54zM188 53v963q0 53 58 53h119q57 0 57 -53v-963q0 -53 -57 -53h-119q-57 0 -58 53zM350 1260v94q0 53 56 53h118q57 0 58 -53v-94q0 -53 -58 -54h-118q-55 0 -56 54z" />
<glyph unicode="&#xf1;" horiz-adv-x="1169" d="M150 53v682q0 145 103 239.5t253 94.5h160q150 0 253 -94t103 -240v-682q0 -53 -55 -53h-121q-55 0 -55 53v682q0 55 -38 95t-87 40h-160q-51 0 -89 -39.5t-38 -95.5l2 -682q0 -53 -57 -53h-119q-55 0 -55 53zM250 1260q0 10 4 22q45 94 72 125q49 59 131 59t159.5 -65.5 t94.5 -65.5q10 0 33.5 48.5t56.5 48.5q10 0 22 -5q98 -35 99 -67q-1 -11 -7 -25l-24 -49q-61 -133 -178 -133q-80 0 -158 65.5t-94 65.5q-12 0 -36 -48t-56 -48q-10 0 -23 4q-96 33 -96 68z" />
<glyph unicode="&#xf2;" horiz-adv-x="1128" d="M129 334v401q0 143 103.5 238.5t252.5 95.5h160q150 0 253 -95t103 -239v-401q0 -145 -103 -239.5t-253 -94.5h-160q-150 0 -253 94t-103 240zM360 334q0 -55 37 -95t88 -40h160q49 0 87 40t38 95v401q0 55 -38 95t-87 40h-160q-49 0 -87 -39.5t-38 -95.5v-401zM379 1413 q0 25 24 39q92 51 113 51q27 0 43 -22q66 -74 131 -150q68 -82 68 -123q0 -25 -25 -39q-92 -51 -112 -51q-27 0 -43 23q-66 74 -132.5 152.5t-66.5 119.5z" />
<glyph unicode="&#xf3;" horiz-adv-x="1128" d="M129 334v401q0 143 103.5 238.5t252.5 95.5h160q150 0 253 -95t103 -239v-401q0 -145 -103 -239.5t-253 -94.5h-160q-150 0 -253 94t-103 240zM360 334q0 -55 37 -95t88 -40h160q49 0 87 40t38 95v401q0 55 -38 95t-87 40h-160q-49 0 -87 -39.5t-38 -95.5v-401zM379 1208 q0 39 67 121l132 152q16 20 43 20q20 0 112 -51q25 -14 25 -39q0 -39 -66.5 -118t-132.5 -154q-16 -20 -43 -21q-20 0 -113 49q-25 14 -24 41z" />
<glyph unicode="&#xf4;" horiz-adv-x="1128" d="M129 334v401q0 143 103.5 238.5t252.5 95.5h160q150 0 253 -95t103 -239v-401q0 -145 -103 -239.5t-253 -94.5h-160q-150 0 -253 94t-103 240zM246 1212q0 14 12 31l188 236q18 23 46 22h157q6 -2 15 -4q16 -6 26 -18q66 -76 131 -150q68 -84 68 -123q0 -25 -25 -39 q-92 -51 -112 -51q-27 0 -43 23l-140 174q-45 -61 -90 -123q-57 -74 -98 -74q-14 0 -27 8q-33 16 -63 33q-45 27 -45 55zM360 334q0 -55 37 -95t88 -40h160q49 0 87 40t38 95v401q0 55 -38 95t-87 40h-160q-49 0 -87 -39.5t-38 -95.5v-401z" />
<glyph unicode="&#xf5;" horiz-adv-x="1128" d="M129 334v401q0 143 103.5 238.5t252.5 95.5h160q150 0 253 -95t103 -239v-401q0 -145 -103 -239.5t-253 -94.5h-160q-150 0 -253 94t-103 240zM231 1260q0 10 7 22q45 94 71 125q49 59 131 59q80 0 158 -65.5t94 -65.5q12 0 36 48.5t56 48.5q10 0 23 -5q98 -35 98 -67 q0 -11 -6 -25l-25 -49q-61 -133 -178 -133q-82 0 -159.5 65.5t-92.5 65.5q-12 0 -35.5 -48t-56.5 -48q-10 0 -22 4q-98 33 -99 68zM360 334q0 -55 37 -95t88 -40h160q49 0 87 40t38 95v401q0 55 -38 95t-87 40h-160q-49 0 -87 -39.5t-38 -95.5v-401z" />
<glyph unicode="&#xf6;" horiz-adv-x="1128" d="M129 334v401q0 143 103.5 238.5t252.5 95.5h160q150 0 253 -95t103 -239v-401q0 -145 -103 -239.5t-253 -94.5h-160q-150 0 -253 94t-103 240zM293 1260v94q0 53 55 53h121q55 0 55 -53v-94q0 -53 -55 -54h-121q-55 0 -55 54zM360 334q0 -55 37 -95t88 -40h160 q49 0 87 40t38 95v401q0 55 -38 95t-87 40h-160q-49 0 -87 -39.5t-38 -95.5v-401zM614 1260v94q0 53 58 53h119q55 0 55 -53v-94q0 -53 -55 -54h-119q-57 0 -58 54z" />
<glyph unicode="&#xf8;" horiz-adv-x="1144" d="M109 535q0 227 134 392t328 165q98 0 189 -48q23 27 57 27h133q49 0 49 -43q0 -12 -8 -24l-67 -107q112 -157 112 -362q0 -227 -134 -392.5t-331 -165.5q-98 0 -188 48q-23 -27 -57 -27h-136q-47 0 -47 43q0 12 7 25l67 108q-109 156 -108 361zM340 535q0 -72 16 -138 l295 473q-39 23 -80 23q-90 0 -159 -98q-72 -106 -72 -260zM489 199q41 -25 82 -25q92 0 163 102.5t71 258.5q0 72 -19 139z" />
<glyph unicode="&#xf9;" horiz-adv-x="1169" d="M150 334v684q0 51 55 51h119q57 0 57 -51v-684q0 -55 37 -95t88 -40h160q49 0 87 40t38 95v684q0 51 55 51h119q57 0 57 -51v-684q0 -143 -103.5 -238.5t-252.5 -95.5h-160q-150 0 -253 95t-103 239zM399 1413q0 25 25 39q92 51 113 51q27 0 43 -22q66 -74 131 -150 q68 -82 67 -123q1 -25 -24 -39q-92 -51 -113 -51q-27 0 -43 23q-66 74 -132.5 152.5t-66.5 119.5z" />
<glyph unicode="&#xfa;" horiz-adv-x="1169" d="M150 334v684q0 51 55 51h119q57 0 57 -51v-684q0 -55 37 -95t88 -40h160q49 0 87 40t38 95v684q0 51 55 51h119q57 0 57 -51v-684q0 -143 -103.5 -238.5t-252.5 -95.5h-160q-150 0 -253 95t-103 239zM399 1208q0 39 68 121q66 76 131 152q16 20 43 20q21 0 113 -51 q25 -14 24 -39q0 -39 -66.5 -118t-131.5 -154q-16 -20 -43 -21q-20 0 -113 49q-25 14 -25 41z" />
<glyph unicode="&#xfb;" horiz-adv-x="1169" d="M150 334v684q0 51 55 51h119q57 0 57 -51v-684q0 -55 37 -95t88 -40h160q49 0 87 40t38 95v684q0 51 55 51h119q57 0 57 -51v-684q0 -143 -103.5 -238.5t-252.5 -95.5h-160q-150 0 -253 95t-103 239zM266 1212q0 14 13 31l188 236q18 23 45 22h158q6 -2 14 -4 q16 -6 27 -18q66 -76 129 -150q70 -84 69 -123q1 -25 -24 -39q-92 -51 -113 -51q-27 0 -45 23l-137 174q-45 -61 -90 -123q-57 -74 -99 -74q-14 0 -26 8q-33 16 -64 33q-45 27 -45 55z" />
<glyph unicode="&#xfc;" horiz-adv-x="1169" d="M150 334v684q0 51 55 51h119q57 0 57 -51v-684q0 -55 37 -95t88 -40h160q49 0 87 40t38 95v684q0 51 55 51h119q57 0 57 -51v-684q0 -143 -103.5 -238.5t-252.5 -95.5h-160q-150 0 -253 95t-103 239zM313 1260v94q0 53 56 53h120q55 0 56 -53v-94q0 -53 -56 -54h-120 q-55 0 -56 54zM635 1260v94q0 53 55 53h121q55 0 55 -53v-94q0 -53 -55 -54h-121q-55 0 -55 54z" />
<glyph unicode="&#xff;" horiz-adv-x="1079" d="M88 -279q0 53 55 54h113q49 0 100.5 44t69.5 103l20 64q-25 12 -32 37l-314 985q-2 8 -2 14q0 47 52 47h120q45 0 60 -41l223 -702l219 702q14 41 59 41h121q51 0 52 -47q-1 -6 -3 -14l-348 -1104q-45 -145 -166 -240q-125 -100 -268 -92q-27 2 -79 6t-52 53v90z M272 1257v97q0 53 56 53h118q57 0 58 -53v-97q0 -53 -58 -53h-118q-55 0 -56 53zM594 1257v97q0 53 55 53h119q57 0 57 -53v-97q0 -53 -57 -53h-119q-55 0 -55 53z" />
<glyph unicode="&#x178;" horiz-adv-x="1312" d="M84 1454q0 43 49 43h121q43 0 61 -35l340 -592l340 592q20 35 62 35h123q47 0 47 -43q0 -12 -6 -24l-449 -783v-594q0 -53 -55 -53h-121q-55 0 -55 53v594l-449 783q-8 12 -8 24zM379 1688v96q0 53 55 53h121q55 0 55 -53v-96q0 -53 -55 -54h-121q-55 0 -55 54zM700 1688 v96q0 53 56 53h121q55 0 55 -53v-96q0 -53 -55 -54h-121q-55 0 -56 54z" />
<glyph unicode="&#x2c6;" horiz-adv-x="808" d="M82 1253q0 12 12 25l189 205q18 18 45 18h157q6 -2 15 -4q16 -4 26 -14q66 -66 132.5 -133.5t66.5 -102.5q0 -21 -27 -33q-90 -43 -110 -43q-27 0 -45 17l-137 149q-45 -51 -91 -104q-57 -63 -98 -64q-14 0 -27 7q-33 14 -63 28q-45 25 -45 49z" />
<glyph unicode="&#x2dc;" horiz-adv-x="862" d="M94 1296q0 8 6 19q45 78 70 102q51 49 133 49q80 0 158 -54t94 -54q12 0 35.5 40t56.5 40q10 0 23 -4q98 -27 98 -56q0 -8 -6 -18l-25 -41q-63 -111 -178 -111q-82 0 -159.5 54.5t-94.5 54.5q-10 0 -33.5 -40t-56.5 -40q-10 0 -22 4q-98 27 -99 55z" />
<glyph unicode="&#x2000;" horiz-adv-x="966" />
<glyph unicode="&#x2001;" horiz-adv-x="1933" />
<glyph unicode="&#x2002;" horiz-adv-x="966" />
<glyph unicode="&#x2003;" horiz-adv-x="1933" />
<glyph unicode="&#x2004;" horiz-adv-x="644" />
<glyph unicode="&#x2005;" horiz-adv-x="483" />
<glyph unicode="&#x2006;" horiz-adv-x="322" />
<glyph unicode="&#x2007;" horiz-adv-x="322" />
<glyph unicode="&#x2008;" horiz-adv-x="241" />
<glyph unicode="&#x2009;" horiz-adv-x="386" />
<glyph unicode="&#x200a;" horiz-adv-x="107" />
<glyph unicode="&#x2010;" horiz-adv-x="894" d="M119 748v94q0 53 55 53h547q57 0 57 -53v-94q0 -53 -57 -54h-547q-55 0 -55 54z" />
<glyph unicode="&#x2011;" horiz-adv-x="894" d="M119 748v94q0 53 55 53h547q57 0 57 -53v-94q0 -53 -57 -54h-547q-55 0 -55 54z" />
<glyph unicode="&#x2012;" horiz-adv-x="894" d="M119 748v94q0 53 55 53h547q57 0 57 -53v-94q0 -53 -57 -54h-547q-55 0 -55 54z" />
<glyph unicode="&#x2013;" horiz-adv-x="1110" d="M119 748v94q0 53 55 53h762q55 0 55 -53v-94q0 -53 -55 -54h-762q-55 0 -55 54z" />
<glyph unicode="&#x2014;" horiz-adv-x="1323" d="M119 748v94q0 53 55 53h975q57 0 57 -53v-94q0 -53 -57 -54h-975q-55 0 -55 54z" />
<glyph unicode="&#x2018;" horiz-adv-x="540" d="M119 1116v146q0 96 83 180t177 84q51 0 51 -49v-74q0 -27 -49 -50.5t-49 -99.5h45q55 0 55 -49v-88q0 -47 -55 -47h-203q-55 0 -55 47z" />
<glyph unicode="&#x2019;" horiz-adv-x="479" d="M47 1362v88q0 49 55 49h203q55 0 55 -49v-145q0 -96 -82.5 -180.5t-179.5 -84.5q-49 0 -49 50v75q0 27 48 50.5t48 99.5h-43q-55 0 -55 47z" />
<glyph unicode="&#x201a;" horiz-adv-x="550" d="M119 6v86q0 49 55 49h203q55 0 55 -49v-145q0 -94 -83 -178t-179 -84q-49 0 -49 49v73q0 27 48 50.5t48 99.5h-43q-55 0 -55 49z" />
<glyph unicode="&#x201c;" horiz-adv-x="968" d="M119 1116v146q0 96 83 180t177 84q51 0 51 -49v-74q0 -27 -49 -50.5t-49 -99.5h45q55 0 55 -49v-88q0 -47 -55 -47h-203q-55 0 -55 47zM545 1116v146q0 96 84 180t178 84q51 0 51 -49v-74q0 -27 -49 -50.5t-49 -99.5h45q55 0 55 -49v-88q0 -47 -55 -47h-203q-57 0 -57 47 z" />
<glyph unicode="&#x201d;" horiz-adv-x="907" d="M47 1362v88q0 49 55 49h203q55 0 55 -49v-145q0 -96 -82.5 -180.5t-179.5 -84.5q-49 0 -49 50v75q0 27 48 50.5t48 99.5h-43q-55 0 -55 47zM473 1362v88q0 49 57 49h203q55 0 55 -49v-145q0 -96 -82.5 -180.5t-179.5 -84.5q-49 0 -49 50v75q0 27 48 50.5t48 99.5h-43 q-57 0 -57 47z" />
<glyph unicode="&#x201e;" horiz-adv-x="978" d="M119 6v86q0 49 55 49h203q55 0 55 -49v-145q0 -94 -83 -178t-179 -84q-49 0 -49 49v73q0 27 48 50.5t48 99.5h-43q-55 0 -55 49zM545 6v86q0 49 57 49h203q55 0 55 -49v-145q0 -94 -83 -178t-179 -84q-49 0 -49 49v73q0 27 48 50.5t48 99.5h-43q-57 0 -57 49z" />
<glyph unicode="&#x2022;" horiz-adv-x="681" d="M119 651v193q0 45 55 45h334q55 0 55 -45v-193q0 -45 -55 -45h-334q-55 0 -55 45z" />
<glyph unicode="&#x2026;" horiz-adv-x="1406" d="M119 53v94q0 53 55 54h203q55 0 55 -54v-94q0 -53 -55 -53h-203q-55 0 -55 53zM547 53v94q0 53 55 54h203q55 0 55 -54v-94q0 -53 -55 -53h-203q-55 0 -55 53zM975 53v94q0 53 55 54h203q57 0 57 -54v-94q0 -53 -57 -53h-203q-55 0 -55 53z" />
<glyph unicode="&#x202f;" horiz-adv-x="386" />
<glyph unicode="&#x205f;" horiz-adv-x="483" />
<glyph unicode="&#x2122;" horiz-adv-x="1071" d="M92 1411v64q0 23 27 22h293q27 0 26 -22v-64q0 -25 -26 -25h-76v-296q0 -25 -27 -25h-88q-27 0 -26 25v296h-76q-27 0 -27 25zM485 1090v385q0 23 27 22h74q20 0 26 -16l99 -242l100 242q6 16 27 16h73q27 0 27 -22v-385q0 -25 -27 -25h-73q-27 0 -27 25v98 q-14 -35 -29 -72q-23 -51 -45 -51h-53q-23 0 -45 51q-12 37 -27 72v-98q0 -25 -26 -25h-74q-27 0 -27 25z" />
<glyph unicode="&#x25fc;" horiz-adv-x="1075" d="M0 0v1075h1075v-1075h-1075z" />
</font>
</defs>
</svg>
